<svg width="92" height="41" viewBox="0 0 92 41" fill="none" xmlns="http://www.w3.org/2000/svg">
<rect x="0.5" y="-0.5" width="40" height="40" rx="20" transform="matrix(1 1.74846e-07 1.74846e-07 -1 8.74228e-08 40)" fill="#F8F7F3"/>
<rect x="0.5" y="-0.5" width="40" height="40" rx="20" transform="matrix(1 1.74846e-07 1.74846e-07 -1 8.74228e-08 40)" stroke="#D5D1E1"/>
<path d="M28 20.5002C28 20.8645 27.7435 21.1656 27.4107 21.2133L27.3182 21.2199L15.3325 21.2193L19.6625 25.7707C19.9294 26.0511 19.9303 26.5068 19.6646 26.7884C19.4231 27.0444 19.0443 27.0685 18.777 26.8601L18.7004 26.7906L13.2003 21.0106C13.1651 20.9736 13.1345 20.9336 13.1086 20.8913C13.1013 20.8786 13.0938 20.8656 13.0868 20.8523C13.0803 20.841 13.0744 20.8292 13.0688 20.8172C13.0611 20.7998 13.0536 20.7819 13.0468 20.7636C13.0412 20.7494 13.0366 20.7357 13.0324 20.7219C13.0274 20.7047 13.0225 20.6864 13.0183 20.6678C13.0152 20.6549 13.0127 20.6424 13.0105 20.6298C13.0075 20.6112 13.0049 20.5919 13.0031 20.5724C13.0015 20.5575 13.0005 20.5427 13 20.528C12.9999 20.519 12.9997 20.5096 12.9997 20.5002L13 20.4723C13.0006 20.4582 13.0015 20.4441 13.0028 20.43L12.9997 20.5002C12.9997 20.4548 13.0037 20.4104 13.0113 20.3673C13.0131 20.357 13.0152 20.3465 13.0175 20.3359C13.0224 20.3143 13.028 20.2934 13.0344 20.273C13.0376 20.2628 13.0412 20.2519 13.0452 20.2412C13.0532 20.2195 13.0618 20.1989 13.0713 20.1788C13.0758 20.1693 13.0807 20.1594 13.0859 20.1496C13.0944 20.1336 13.1032 20.1184 13.1125 20.1036C13.119 20.0932 13.1263 20.0823 13.1339 20.0715L13.1398 20.0632C13.1581 20.0379 13.1781 20.0139 13.1994 19.9914L13.2002 19.9907L18.7003 14.2097C18.9672 13.9293 19.3989 13.9302 19.6646 14.2118C19.9061 14.4678 19.9274 14.8677 19.7288 15.149L19.6626 15.2295L15.3343 19.78L27.3182 19.7806C27.6947 19.7806 28 20.1028 28 20.5002Z" fill="#202020"/>
<rect x="-0.5" y="0.5" width="40" height="40" rx="20" transform="matrix(-1 0 0 1 91 0)" fill="#F8F7F3"/>
<rect x="-0.5" y="0.5" width="40" height="40" rx="20" transform="matrix(-1 0 0 1 91 0)" stroke="#D5D1E1"/>
<path d="M64 20.4998C64 20.1355 64.2565 19.8344 64.5893 19.7867L64.6818 19.7801L76.6675 19.7807L72.3375 15.2293C72.0706 14.9489 72.0697 14.4932 72.3354 14.2116C72.5769 13.9556 72.9557 13.9315 73.223 14.1399L73.2996 14.2094L78.7997 19.9894C78.8349 20.0264 78.8655 20.0664 78.8914 20.1087C78.8987 20.1214 78.9062 20.1344 78.9132 20.1477C78.9197 20.159 78.9256 20.1708 78.9312 20.1828C78.9389 20.2002 78.9464 20.2181 78.9532 20.2364C78.9588 20.2506 78.9634 20.2643 78.9676 20.2781C78.9726 20.2953 78.9775 20.3136 78.9817 20.3322C78.9848 20.3451 78.9873 20.3576 78.9895 20.3702C78.9925 20.3888 78.9951 20.4081 78.9969 20.4276C78.9985 20.4425 78.9995 20.4573 79 20.472C79.0001 20.481 79.0003 20.4904 79.0003 20.4998L79 20.5277C78.9994 20.5418 78.9985 20.5559 78.9972 20.57L79.0003 20.4998C79.0003 20.5452 78.9963 20.5896 78.9887 20.6327C78.9869 20.643 78.9848 20.6535 78.9825 20.6641C78.9776 20.6857 78.972 20.7066 78.9656 20.727C78.9624 20.7372 78.9588 20.7481 78.9548 20.7588C78.9468 20.7805 78.9382 20.8011 78.9287 20.8212C78.9242 20.8307 78.9193 20.8406 78.9141 20.8504C78.9056 20.8664 78.8968 20.8816 78.8875 20.8964C78.881 20.9068 78.8737 20.9177 78.8661 20.9285L78.8602 20.9368C78.8419 20.9621 78.8219 20.9861 78.8006 21.0086L78.7998 21.0093L73.2997 26.7903C73.0328 27.0707 72.6011 27.0698 72.3354 26.7882C72.0939 26.5322 72.0726 26.1323 72.2712 25.851L72.3374 25.7705L76.6657 21.22L64.6818 21.2194C64.3053 21.2194 64 20.8972 64 20.4998Z" fill="#202020"/>
</svg>
